<svg id="Layer_1" data-name="Layer 1" xmlns="http://www.w3.org/2000/svg" viewBox="0 0 521.67 803.8"><title>logo-2</title><path d="M77.45,802.76c-.36.26-.75.61-1.1.84C76.35,804.05,76.75,803.72,77.45,802.76Z" transform="translate(0 0)"/><path d="M474.55,360.85c-30.73,8.57-27.88,10.54-53.4,21.26-27.51,14.93-51.06,42.06-83.37,68.47-27.7,23.12-51.27,40.05-70.64,44.86,12.95-22.17,25.86-43.86,38.53-64.38C350.53,360.69,392.55,309.7,423.24,292c30.7-20.56,50.07-7.86,50.05-16.57-.43-10.14-60.3-75.1-67.33-77.34-7.15-5.6-16.53-8.65-28.18-7.56-8.93.84-22.36,4.9-40.34,15.44s-31.83,19.76-41.55,24.39c-23.32,11.43-42,12.58-55.91-.68-9-8.42-15-22.08-18.26-40.1,10.06-3.68,20.17-7.56,30.29-11.5,61.12-23.8,122-49,168.11-32.18,46.09,10.9,77.36,63.82,79.28,59,7.67,6.2-2.13-12.22-23.92-65.58C465,114.7,457.33,88.3,423.58,51.9,389.83,16.66,349-1.85,300.76.15c-55,2.74-99.54,22.13-133.85,48.81C132.62,76.05,115.18,110.75,115,162.68a209.92,209.92,0,0,0,2.54,33.07C97,196.44,77.86,193.08,61.29,184c-39.08-16.75-64.14-64.94-61-52.74,3.18-1.08,35.57,57.26,82.43,72.17,11.83,5.28,24.58,7.78,38,8.21,4.54,18.32,11.76,34.94,21.85,48.33,18.56,24.77,45.42,35,80.54,27.52-37.31,32.25-66,63.43-86,98S106.89,458,106.72,502.28c-.24,60.44,17.59,108,53.95,115.45a45.72,45.72,0,0,0,13.69,1c-49,97.71-89.85,174.45-96.91,184C101.27,785.55,148,704.41,201,611.09c29.27-13.81,63.55-45,102.76-85.91,52.49-54.22,96.26-95.4,131-117.79,34.8-31.27,88.51-17.4,86.94-44.22C506,355.79,490.33,355.33,474.55,360.85Zm-236-290c13.24-21.11,32.19-33.2,57-36,19.81-2.2,35.49,1.07,47.07,8,11.58,7.29,0-.76,30.76,20.26,15.65,11.31,32.48,43.1,41.1,51,2.13,4.52-23.26-9.89-62.5.5-36.08,6.5-83.89,34-132.64,54.34q-.36-6.22-.4-12.94C218.74,120.74,225.32,91.89,238.57,70.8Zm.37,257.63q21.19-43.89,58.59-64.44c10.14-5.48,23.94-9.4,41.44-10.64s31-2.31,40.35-4.33c3,2.9-13.58,15.59-40.79,58.15C311.94,347,275.2,415.52,237.41,490.64c-12.81-9.88-19.28-31.41-19.43-62.39C217.79,391.5,224.82,357.69,238.94,328.43Z" transform="translate(0 0)"/></svg>