<?xml version="1.0" encoding="utf-8"?>
<!-- Generator: Adobe Illustrator 22.1.0, SVG Export Plug-In . SVG Version: 6.00 Build 0)  -->
<svg version="1.0" id="Layer_1" xmlns="http://www.w3.org/2000/svg" xmlns:xlink="http://www.w3.org/1999/xlink" x="0px" y="0px"
	 viewBox="0 0 1994.9 803.8" style="enable-background:new 0 0 1994.9 803.8;" xml:space="preserve">
<g>
	<path d="M1671.4,681.7c-16.2,2.8-32.2,7-48.3,10.3c-121.8,25-243.5,50.8-367.6,60.8c0-0.1-0.1-0.2-0.1-0.3
		c-39.6,4.5-79.4,7.8-119.1,11.7c-62.5,6.1-125.2,6.2-187.9,5.7c-76.5-0.6-152.8-5.7-228.7-14.9c-94.2-11.5-187.2-29-278.2-56.3
		c-77.3-23.2-152-52.4-220.7-95.4c-39.1-24.5-74.8-53.1-103-90.3c-19.1-25.2-32.8-53.2-36.3-84.5c-3.6-32.1,1.2-63.6,16.4-93.1
		c16.4-31.7,39-58.1,65.6-81.3c38.9-34,82.7-60.6,129.1-83.1C395.4,121.2,504.3,90.5,616.1,69c73.7-14.2,148-24.5,222.9-29.2
		c51.7-3.3,103.4-5.7,146.6-8.1c55.5,1.3,102.5,1.1,149.3,3.7c93.1,5.2,185.8,15.5,277.4,33.7c61.5,12.2,122.3,27.3,181.7,47.4
		c70.8,23.9,139.1,53.4,200.9,96.1c29.3,20.3,56.3,43.3,78.5,71.5c20.2,25.6,35.7,53.7,39.7,86.1c4.3,34.1,0,67.5-16.7,98.8
		c-2.9,5.5-6.1,10.7-9.4,15.9c30-5.4,60-10.8,90-16c15.4-32,22.4-66.2,14.9-104.4c-6.2-31.7-19.5-59.6-38.5-85.2
		c-29-39-66.1-69-106.6-95c-68.2-43.7-142.4-74.1-219.2-98.7c-76.7-24.6-155-42.4-234.4-55.4c-64.3-10.6-128.9-18.8-193.9-22.7
		c-36.4-2.2-72.9-4.3-109.3-5.4c-39.4-1.3-79-2.5-118.4-1.7C927.6,1.3,883.8,4.5,840,7c-67,3.9-133.5,12.2-199.8,22.9
		c-115.7,18.7-229,46.2-338.2,89.6c-66.3,26.3-129.7,57.9-186.6,101.5c-40.4,30.9-75.8,66.5-97.5,113.3c-17.2,37-23.5,75.3-12.2,116
		c10.1,36.1,28.8,66.7,53.5,94.1c39.9,44.2,88.8,76.4,141.1,103.9c71.9,37.9,148.1,64.8,226.3,86.1C532.9,763.3,641.3,781,751,791.5
		c83.1,8,166.4,10,256,12.2c38.1-2.1,82.4-4.7,126.7-7c46.3-2.4,92.4-6.7,138.3-12.4c-0.1-0.1-0.1-0.2-0.2-0.4
		c21-2.5,41.8-5.8,62.6-9.4c82.4-14.4,144.9-27.5,226-49c2.3-0.6,8.1,2.3,4,5.4c-18.5,14-65.1,40.8-91.7,61.4
		c67-24.7,197.9-86.1,224-102C1696.8,690.4,1675.7,681,1671.4,681.7z"/>
	<path d="M524.9,419.3c-4,9.4-10.2,18-16.4,26.2c-6.8,9-15.8,11.9-27.5,8.3c-19.8-6.2-39.9-11-59.9-16.4c-3.3-0.9-6.7-1.8-10.1-2.1
		c-6.8-0.5-11.9,3.3-13.7,9.1c-1.1,3.3,1.2,8.1,2.9,11.9c1.2,2.5,3.7,4.7,6,6.5c21.9,16.8,43.7,33.7,65.8,50.3
		c10.1,7.6,21,7.5,32.1,2c3.5-1.8,7.3-3,10.8-4.8C574,479.1,629.9,443,679,397.3c11.8-11,22.9-23.4,32.2-36.6
		c17.9-25.4,15.1-46.4-9.3-66c-12.2-9.8-26.1-17.8-40.3-24.5c-34.6-16.4-71.6-24.7-109-32.1c-19.7-3.9-39.3-3.7-58.9-0.7
		c-44.4,6.8-88.2,17-131.2,29.9c-39.8,11.9-78.5,26.6-114.1,48.3c-18.2,11.1-35.2,23.9-48,41.3c-18.8,25.5-21.7,52.8-6.6,80.6
		c6.5,12,15.4,23,24.7,33c18,19.3,39.8,33.8,62.5,47c90.6,52.5,189,83.8,290.7,106.3c19.3,4.3,38.9,6.7,58.8,2.8
		c6.3-1.2,12.7-2.2,16.2-10.5c-5.8-8.5-14.7-10.9-23-13.3c-34.6-10.1-69.3-19.5-104-29.1c-44.7-12.4-89.5-24.3-132-43.3
		c-21.3-9.5-41.6-20.6-59.1-36.2c-34.9-31-37.1-69.6-5-103.7c10.7-11.4,23.4-21.4,36.5-29.9c36.4-23.7,77-37.7,119.2-46.6
		c15-3.2,30.5-3.6,45.4,1.8c19,6.8,28.7,24.5,22.5,43.8C540.5,379.8,533.1,399.8,524.9,419.3z"/>
</g>
</svg>
