<svg id="Layer_1" data-name="Layer 1" xmlns="http://www.w3.org/2000/svg" viewBox="0 0 486.56 793.52"><title>logo-5</title><path d="M403,443.77c5.57,7.47,64.38,234.93,83.55,246.39-8.84-22-61.75-253.78-63.64-266.3-1.36-9.19-6.52-26.91-11.23-34.44-9-14.66-18.79-20.7-29.78-28.94-5.91-4.41-14.85-7.2-23.76-9.55a123.55,123.55,0,0,0,14.1-44.8c2.62-23.29-12.05-42.28-31.87-52.51-15.16-7.72-29.15-13.75-42.11-17.08-36.44-9.52-72.57-22.31-81.9-65.21-1.49,2.89,1.45,33.74,7.8,43,8.63,12.55,88.44,57.25,120.31,68.29.46,19.38-11.72,47.07-35.28,70.2a175.55,175.55,0,0,1-31.76,25.23c-9.2,10.95-23.72,18.2-37.19,20.9-16.05,3.22-29.25-.65-40.32-12.68a97.16,97.16,0,0,1-19.45-33.17,567,567,0,0,0,10.79,72.11c-33.55,7.33-68.34,16.62-105.1,19.12C24.56,448,6.66,426.57,36.58,381.94c3.59-5.66,7.38-11.36,11.35-17.05s8-11.2,12.3-16.71c2.67-3.43,5.4-6.84,8.21-10.19,31.29-37.37,60.71-75.67,86.74-115A1151,1151,0,0,0,250.3,49c6.82-15.63,13.6-32.65,20.31-49-18.05,43.83-39,88.78-63.26,131.77-29.06,51.72-66,100.79-106.73,149.93-17.12,21-35.56,42.16-52.74,63.28Q42.13,352,36.6,359.09c-6.83,8.74-13.36,17.47-19.38,26.16-38.41,52.28-10.71,79.06,64.59,77.09,40.41-1.42,79-8.76,117.82-14.69.1.36,21.12,55.41,32,81.9-.07,1.09,37.52,83,41.93,90,1.56,4-2.15,3.83-6.6,3.77-12.78,1-21.61-3-33.2-4h0c1,2.86-8.69,24.49-2.6,44.44.39,1.29.48,2.81,1.81,3.95,8.79,7.56,18.15,15.13,27.7,22.8l2.11-1c0-2.2.32-4.37-.49-6.67-1.15-3.26-3.44-6.66-5.37-10-5.88-10.26,1-16.87,16.63-16.79a66.35,66.35,0,0,1,40.07,14.31,198.15,198.15,0,0,1,40.77,44.33,253.14,253.14,0,0,1,28.41,57.47c3.05,8.63,14.76,14.47,27.2,21.36-6.27-18.7-12.43-37.41-20.31-56.45-7.95-19.21-17.44-38.7-25.75-58.48-.35-1.09-16.2-33.4-19.12-38.19-3.64-5.93-15.11-24.76-16.14-26.47C291,552.05,262.69,492.26,243.41,433.86c11.43-5.53,57.64-22,68.08-24.47C339.74,403,373.26,406.15,403,443.77ZM375,394.14c-18.16-3.39-35.16-6.9-50.5-6.09a164.91,164.91,0,0,0,17.15-14.91c1-1,1.9-2,2.82-3,9.09,4.8,19,6.58,29.09,11.82,4.31,2.25,8.53,7.28,12.72,11.44C382.45,393.64,378.82,394.84,375,394.14Z" transform="translate(0)"/></svg>