<svg id="Layer_1" data-name="Layer 1" xmlns="http://www.w3.org/2000/svg" viewBox="0 0 1309.72 793.6"><title>logo-4</title><path d="M1306.2,425.1c-56.93-40-119.83-65.69-188.92-73.54-108.62-12.36-205.54,22.09-294.89,80.38-29.82,19.46-56.26,44.11-84.1,66.57-3.19,2.57-5.82,5.85-8.7,9.14-3.26-1.68-14.27-4.12-16.6-11.9-10.42,7.07,3,17,7.32,25.67-2.31,3.53-11.29,12.64-14.66,20-1,2.28-2.27,8-2.72,12.67-3.28,6.07-6.63,5.4-13,4.45-3.62-.54-8.5-1.5-17-14.72-24.17-1,2.23,14.18,21.07,30.2-2.51,10.24-15,33.62-17.77,44.74a6.82,6.82,0,0,0-2-.56c-23.28-2.67-25.45-4.23-33-24.9a6.85,6.85,0,0,0-6.78-4.47c-9.09.44-15.81-4.62-20.91-12.17a6.8,6.8,0,0,0-7.4-2.72c-7.22,2-17.73,10.95-34.08,10.56-6.76-.16,15.76,11.5,20.65,6.83a6,6,0,0,1,.85-.68c9.11-6,17.14,2.3,23.69,9.27,2.14,2.27,4.13,4.68,6.32,6.89,13.07,13.2,25.85,26.73,39.18,39.64-3.28,2.47-6.68,5-10,7.64C626.41,674.67,608,672.62,588,645.24c-9.11-12.47-15.57-26.84-24-39.89C526.27,546.46,489.79,486.66,450,429.18c-68.27-98.5-138.35-195.91-229-275.83-30.72-27.09-62.86-52.73-95.82-77.06C97.22,55.7,67.45,37.59,38,19.13,26.21,11.7,13.15,6.26.65-.08-.12,5.16.77,7.38,2.42,8.44,27.59,24.76,52.79,41.06,78.13,57.11c83.41,52.83,154,120,218.75,194C354.6,317,401.76,390.2,440.92,468.16c31.39,62.49,53.32,129,72,196.49,16.38,59.3,57.92,96.93,109.35,128.87,35.13-38.74,62.21-83.42,100.54-110.82,14.85-3.45,58.66-57.79,47.62-51.6-10.31,5.79-34,24.71-48.81,21.07-19.92.69-8.9-11.1-8-14.13,3.9-13.37,16.61-38.85,19.73-52.45,1.13-4.94,10.66-2.73,16.29,4,10.65.14,10.24-5.24,17.23-5.87,3.64-1.33,20.24-9.34,19.72-12-22.18,7.53-48.08-10.19-49.8-14.71,0,0-6-20.61,9.41-26.32,3.23,1,9,2.88,12.39,3.65,25.3,5.84,42.09-6.33,35.82-6.61-17.52-.78-27-7.39-31.37-11.51a123.61,123.61,0,0,0,10-8.93c49.17-47.4,104.83-84.89,167.72-111.77,36-15.4,73.52-25.22,112.43-27.19,82-4.16,158.11,18.52,230.87,54.57,7.35,3.64,15.1,6.47,26.12,11.13C1307.46,427.83,1307.27,425.85,1306.2,425.1Z" transform="translate(-0.37 0.08)"/></svg>