<?xml version="1.0" encoding="utf-8"?>
<!-- Generator: Adobe Illustrator 16.0.0, SVG Export Plug-In . SVG Version: 6.00 Build 0)  -->
<!DOCTYPE svg PUBLIC "-//W3C//DTD SVG 1.1//EN" "http://www.w3.org/Graphics/SVG/1.1/DTD/svg11.dtd">
<svg version="1.1" id="Layer_1" xmlns="http://www.w3.org/2000/svg" xmlns:xlink="http://www.w3.org/1999/xlink" x="0px" y="0px"
	 width="299.957px" height="81.757px" viewBox="0 0 299.957 81.757" enable-background="new 0 0 299.957 81.757"
	 xml:space="preserve">
<g>
	<g>
		<g>
			<linearGradient id="SVGID_1_" gradientUnits="userSpaceOnUse" x1="149.98" y1="81.3433" x2="149.98" y2="0.4175">
				<stop  offset="0.002" style="stop-color:#FFFFFF"/>
				<stop  offset="0.2875" style="stop-color:#FAFAFA"/>
				<stop  offset="0.6438" style="stop-color:#EAEAEA"/>
				<stop  offset="1" style="stop-color:#D4D4D4"/>
			</linearGradient>
			<path fill="url(#SVGID_1_)" d="M27.82,0.417c0,0-27.403,6.659-27.403,40.205c0,36.88,27.403,40.72,27.403,40.72h243.544
				c0,0,24.588,0.737,27.914-35.998c3.33-36.732-25.865-44.927-25.865-44.927H27.82z"/>
			<path fill="#ADADAD" d="M271.477,81.757H27.82c-0.337-0.046-7.108-1.055-13.959-6.625C7.54,69.994,0,59.83,0,40.622
				C0,13.831,18.134,2.353,27.724,0.017L273.48,0l0.046,0.017c0.081,0.031,7.474,2.16,14.357,8.786
				c6.338,6.13,13.541,17.449,11.813,36.574C296.479,80.736,274.021,81.757,271.477,81.757z M27.82,0.832
				C18.551,3.105,0.831,14.357,0.831,40.622c0,18.871,7.348,28.815,13.51,33.837c6.692,5.461,13.462,6.465,13.542,6.483
				l243.594-0.019c2.466,0,24.249-0.989,27.402-35.609c2.595-28.715-15.523-41.649-25.526-44.483H27.82z"/>
		</g>
		<path fill="#FFFFFF" d="M28.602,3.536c0,0-18.966,4.387-18.966,25.594c0,23.319,18.966,25.577,18.966,25.577h238.153
			c0,0,21.865-1.009,23.047-24.07c1.282-24.844-17.925-27.101-17.925-27.101H28.602z"/>
	</g>
	<g>
		<path d="M74.788,47.58c-0.051-0.893-0.051-2.643,0-3.535c0.481-7.497,4.959-12.457,12.2-12.457
			c7.927,0,12.302,5.439,12.302,13.779v0.891c0,0.738-0.532,1.219-1.218,1.219H79.798v0.48c0.224,4.324,2.746,8.236,7.189,8.236
			c3.757,0,5.696-2.162,6.28-3.002c0.635-0.857,0.79-0.91,1.596-0.91h2.573c0.635,0,1.167,0.428,1.116,1.115
			c-0.103,2.111-4.272,6.709-11.513,6.709C79.748,60.105,75.217,55.3,74.788,47.58z M94.28,43.839v-0.172
			c0-4.753-2.745-8.235-7.292-8.235s-7.189,3.482-7.189,8.235v0.172H94.28z"/>
		<path d="M105.295,44.73v-2.006c0-0.687,0.48-1.218,1.218-1.218h15.854c0.738,0,1.201,0.531,1.201,1.218v2.006
			c0,0.688-0.463,1.221-1.201,1.221h-15.854C105.776,45.951,105.295,45.417,105.295,44.73z"/>
		<path d="M131.083,58.355V33.321c0-0.687,0.532-1.218,1.219-1.218h2.368c0.686,0,1.218,0.532,1.218,1.218v1.853
			c1.63-2.162,4.015-3.535,7.498-3.586c4.016-0.051,6.864,1.63,8.442,4.856c1.647-2.917,4.924-4.856,8.837-4.856
			c5.541,0,9.813,3.792,9.813,11.513v15.254c0,0.686-0.532,1.217-1.218,1.217h-2.472c-0.686,0-1.218-0.531-1.218-1.217V43.564
			c0-5.901-2.848-7.703-6.228-7.703c-2.866,0-6.074,1.802-6.074,7.703v14.791c0,0.686-0.532,1.217-1.219,1.217h-2.488
			c-0.687,0-1.218-0.531-1.218-1.217V43.564c0-5.901-3.105-7.703-6.229-7.703c-2.848,0-6.074,1.802-6.074,7.652v14.842
			c0,0.686-0.532,1.217-1.218,1.217h-2.522C131.616,59.572,131.083,59.041,131.083,58.355z"/>
		<path d="M175.986,52.126c0-4.805,4.323-7.756,10.672-8.664l7.859-1.098v-1.545c0-3.38-1.837-5.387-6.178-5.387
			c-3.482,0-5.233,1.853-6.022,3.277c-0.206,0.686-0.532,0.892-1.046,0.892h-2.283c-0.634,0-1.149-0.514-1.149-1.15
			c0.052-2.11,3.003-6.863,10.553-6.863c8.562,0,11.102,4.856,11.102,9.661v17.106c0,0.686-0.48,1.217-1.219,1.217h-2.436
			c-0.738,0-1.219-0.531-1.219-1.217v-2.266c-1.305,1.904-3.998,4.016-9.025,4.016C180.362,60.105,175.986,56.623,175.986,52.126z
			 M194.518,47.425v-1.475l-6.126,0.891c-5.01,0.688-7.55,2.438-7.55,4.908c0,2.967,2.951,4.393,5.868,4.393
			C191.034,56.142,194.518,53.345,194.518,47.425z"/>
		<path d="M206.613,25.771v-2.848c0-0.687,0.531-1.271,1.219-1.271h3.328c0.687,0,1.27,0.584,1.27,1.271v2.848
			c0,0.687-0.583,1.219-1.27,1.219h-3.328C207.145,26.99,206.613,26.458,206.613,25.771z M207.042,58.355V33.321
			c0-0.687,0.532-1.218,1.218-1.218h2.522c0.687,0,1.218,0.532,1.218,1.218v25.034c0,0.686-0.531,1.217-1.218,1.217h-2.522
			C207.574,59.572,207.042,59.041,207.042,58.355z"/>
		<path d="M219.842,58.355V23.284c0-0.687,0.532-1.201,1.219-1.201h2.471c0.738,0,1.219,0.514,1.219,1.201v35.071
			c0,0.686-0.48,1.217-1.219,1.217h-2.471C220.374,59.572,219.842,59.041,219.842,58.355z"/>
	</g>
</g>
</svg>
