<?xml version="1.0" encoding="utf-8"?>
<!-- Generator: Adobe Illustrator 16.0.0, SVG Export Plug-In . SVG Version: 6.00 Build 0)  -->
<!DOCTYPE svg PUBLIC "-//W3C//DTD SVG 1.1//EN" "http://www.w3.org/Graphics/SVG/1.1/DTD/svg11.dtd">
<svg version="1.1" id="Layer_1" xmlns="http://www.w3.org/2000/svg" xmlns:xlink="http://www.w3.org/1999/xlink" x="0px" y="0px"
	 width="300px" height="44.671px" viewBox="0 0 300 44.671" enable-background="new 0 0 300 44.671" xml:space="preserve">
<g>
	<rect fill="#FFFFFF" width="300" height="44.671"/>
	<linearGradient id="SVGID_1_" gradientUnits="userSpaceOnUse" x1="150.0015" y1="42.3887" x2="150.0015" y2="6.9575">
		<stop  offset="0" style="stop-color:#999999"/>
		<stop  offset="1" style="stop-color:#D9D9D9"/>
	</linearGradient>
	<rect x="4.134" y="4.617" fill="url(#SVGID_1_)" width="291.734" height="35.431"/>
	<polyline fill="#6C6C6C" points="4.138,39.851 4.138,39.851 0,44.671 300,44.671 300,0 295.869,4.617 295.869,40.048 	"/>
	<g>
		<g>
			<path d="M25.139,25.371c-0.022-0.381-0.022-1.122,0-1.504c0.202-3.187,2.11-5.297,5.185-5.297c3.367,0,5.23,2.312,5.23,5.858
				v0.382c0,0.314-0.225,0.516-0.516,0.516h-7.767v0.202c0.09,1.84,1.167,3.501,3.053,3.501c1.594,0,2.424-0.92,2.671-1.279
				c0.27-0.359,0.337-0.382,0.674-0.382h1.1c0.27,0,0.494,0.18,0.471,0.472c-0.045,0.897-1.818,2.851-4.893,2.851
				C27.249,30.691,25.319,28.648,25.139,25.371z M33.422,23.777V23.71c0-2.02-1.167-3.501-3.098-3.501
				c-1.93,0-3.053,1.481-3.053,3.501v0.067H33.422z"/>
			<path d="M38.251,29.95V19.333c0-0.314,0.224-0.539,0.516-0.539H39.8c0.292,0,0.539,0.225,0.539,0.539v0.987
				c0.606-1.01,1.661-1.526,3.142-1.526h0.875c0.292,0,0.516,0.225,0.516,0.517v0.92c0,0.292-0.224,0.494-0.516,0.494H43.01
				c-1.616,0-2.604,1.01-2.604,2.626v6.599c0,0.292-0.247,0.516-0.539,0.516h-1.1C38.476,30.466,38.251,30.242,38.251,29.95z"/>
			<path d="M46.604,16.101v-1.212c0-0.292,0.225-0.539,0.516-0.539h1.414c0.292,0,0.539,0.247,0.539,0.539v1.212
				c0,0.292-0.247,0.516-0.539,0.516H47.12C46.828,16.617,46.604,16.393,46.604,16.101z M46.783,29.95V19.311
				c0-0.292,0.224-0.517,0.516-0.517h1.077c0.292,0,0.517,0.225,0.517,0.517V29.95c0,0.292-0.225,0.516-0.517,0.516h-1.077
				C47.007,30.466,46.783,30.242,46.783,29.95z"/>
			<path d="M52.239,29.95V15.046c0-0.292,0.224-0.516,0.516-0.516h1.055c0.292,0,0.517,0.225,0.517,0.516v7.812l4.422-3.681
				c0.359-0.27,0.449-0.382,0.897-0.382h1.19c0.269,0,0.471,0.202,0.471,0.472c0,0.112-0.067,0.292-0.27,0.426l-5.185,4.31
				l5.746,5.589c0.179,0.157,0.269,0.292,0.269,0.404c0,0.269-0.202,0.471-0.471,0.471h-1.167c-0.449,0-0.562-0.067-0.898-0.381
				l-5.005-4.781v4.646c0,0.292-0.225,0.516-0.517,0.516h-1.055C52.463,30.466,52.239,30.242,52.239,29.95z"/>
			<path d="M62.747,27.301c0-2.042,1.84-3.299,4.534-3.681l3.344-0.472v-0.651c0-1.437-0.786-2.29-2.626-2.29
				c-1.481,0-2.222,0.786-2.559,1.392c-0.09,0.292-0.225,0.382-0.449,0.382h-0.965c-0.27,0-0.494-0.225-0.494-0.494
				c0.022-0.897,1.279-2.917,4.489-2.917c3.636,0,4.713,2.065,4.713,4.107v7.272c0,0.292-0.202,0.516-0.516,0.516h-1.033
				c-0.314,0-0.516-0.225-0.516-0.516v-0.965c-0.561,0.808-1.706,1.706-3.838,1.706C64.609,30.691,62.747,29.209,62.747,27.301z
				 M70.625,25.304v-0.628l-2.604,0.382c-2.133,0.292-3.21,1.032-3.21,2.087c0,1.257,1.257,1.863,2.491,1.863
				C69.144,29.007,70.625,27.818,70.625,25.304z"/>
			<path d="M75.477,25.528c-0.022-0.449-0.022-1.324,0-1.796c0.112-3.232,1.998-5.162,5.208-5.162c3.457,0,4.938,2.177,5.005,3.726
				c0.022,0.292-0.225,0.494-0.516,0.494h-1.078c-0.314,0-0.426-0.112-0.561-0.449c-0.539-1.481-1.459-1.998-2.828-1.998
				c-1.795,0-3.008,1.055-3.098,3.501c-0.022,0.494-0.022,1.123,0,1.571c0.09,2.469,1.302,3.501,3.098,3.501
				c1.369,0,2.29-0.516,2.828-1.998c0.135-0.337,0.247-0.471,0.561-0.471h1.078c0.292,0,0.539,0.224,0.516,0.516
				c-0.067,1.504-1.504,3.726-5.005,3.726C77.475,30.691,75.589,28.76,75.477,25.528z"/>
			<path d="M87.825,25.371c-0.022-0.381-0.022-1.122,0-1.504c0.202-3.187,2.11-5.297,5.185-5.297c3.367,0,5.23,2.312,5.23,5.858
				v0.382c0,0.314-0.225,0.516-0.516,0.516h-7.767v0.202c0.09,1.84,1.167,3.501,3.053,3.501c1.594,0,2.424-0.92,2.671-1.279
				c0.269-0.359,0.336-0.382,0.673-0.382h1.1c0.27,0,0.494,0.18,0.471,0.472c-0.045,0.897-1.818,2.851-4.893,2.851
				C89.936,30.691,88.005,28.648,87.825,25.371z M96.108,23.777V23.71c0-2.02-1.167-3.501-3.098-3.501
				c-1.93,0-3.053,1.481-3.053,3.501v0.067H96.108z"/>
			<path d="M100.938,29.95V19.333c0-0.314,0.224-0.539,0.516-0.539h1.033c0.292,0,0.539,0.225,0.539,0.539v0.987
				c0.606-1.01,1.661-1.526,3.142-1.526h0.875c0.292,0,0.516,0.225,0.516,0.517v0.92c0,0.292-0.224,0.494-0.516,0.494h-1.347
				c-1.616,0-2.604,1.01-2.604,2.626v6.599c0,0.292-0.247,0.516-0.539,0.516h-1.1C101.162,30.466,100.938,30.242,100.938,29.95z"/>
			<path d="M109.356,25.641v-6.33c0-0.292,0.225-0.517,0.516-0.517h1.123c0.292,0,0.516,0.225,0.516,0.517v6.217
				c0,2.222,0.965,3.344,2.918,3.344c1.863,0,3.075-1.234,3.075-3.344v-6.217c0-0.292,0.225-0.517,0.517-0.517h1.122
				c0.292,0,0.494,0.225,0.494,0.517V29.95c0,0.292-0.202,0.516-0.494,0.516h-1.055c-0.292,0-0.517-0.225-0.517-0.516v-0.988
				c-0.785,1.055-1.885,1.729-3.748,1.729C110.928,30.691,109.356,28.626,109.356,25.641z"/>
			<path d="M122.244,29.95v-0.786c0-0.27,0.157-0.494,0.314-0.718l6.195-7.878h-5.791c-0.292,0-0.517-0.202-0.517-0.517v-0.74
				c0-0.292,0.225-0.517,0.517-0.517h7.991c0.314,0,0.516,0.225,0.516,0.517v0.83c0,0.27-0.157,0.472-0.314,0.696l-6.127,7.856
				h6.375c0.314,0,0.516,0.202,0.516,0.517v0.741c0,0.292-0.202,0.516-0.516,0.516h-8.642
				C122.446,30.466,122.244,30.242,122.244,29.95z"/>
			<path d="M133.672,29.95v-0.786c0-0.27,0.157-0.494,0.314-0.718l6.195-7.878h-5.791c-0.292,0-0.517-0.202-0.517-0.517v-0.74
				c0-0.292,0.225-0.517,0.517-0.517h7.991c0.314,0,0.516,0.225,0.516,0.517v0.83c0,0.27-0.157,0.472-0.314,0.696l-6.127,7.856
				h6.375c0.314,0,0.516,0.202,0.516,0.517v0.741c0,0.292-0.202,0.516-0.516,0.516h-8.642
				C133.874,30.466,133.672,30.242,133.672,29.95z"/>
			<path d="M145.661,16.101v-1.212c0-0.292,0.225-0.539,0.516-0.539h1.414c0.292,0,0.539,0.247,0.539,0.539v1.212
				c0,0.292-0.247,0.516-0.539,0.516h-1.414C145.886,16.617,145.661,16.393,145.661,16.101z M145.841,29.95V19.311
				c0-0.292,0.224-0.517,0.516-0.517h1.077c0.292,0,0.517,0.225,0.517,0.517V29.95c0,0.292-0.225,0.516-0.517,0.516h-1.077
				C146.065,30.466,145.841,30.242,145.841,29.95z"/>
			<path d="M150.96,26.269c-0.09-0.831-0.09-3.053,0-3.838c0.449-4.107,3.075-6.891,7.789-6.891c5.455,0,7.923,2.604,8.148,6.891
				c0.067,1.145,0.022,2.514,0,2.94c-0.135,2.177-1.257,3.322-3.053,3.322c-1.504,0-2.245-0.92-2.491-1.279
				c-0.359,0.606-1.055,1.504-2.851,1.504c-2.222,0-3.636-1.661-3.636-4.579c0-2.918,1.414-4.602,3.636-4.602
				c1.212,0,1.863,0.561,2.289,1.077v-0.381c0-0.292,0.202-0.516,0.517-0.516h0.606c0.292,0,0.516,0.224,0.516,0.516v4.781
				c0,1.28,0.583,1.908,1.414,1.908c1.212,0,1.392-1.257,1.414-1.908c0.022-0.449,0.067-1.526,0-2.671
				c-0.247-3.524-2.02-5.454-6.509-5.454c-3.704,0-5.746,2.065-6.15,5.454c-0.09,0.786-0.09,2.783,0,3.614
				c0.359,3.412,2.491,5.387,6.24,5.387c3.21,0,4.197-0.965,4.826-1.458c0.157-0.112,0.314-0.27,0.584-0.27h0.897
				c0.27,0,0.494,0.202,0.494,0.494c0,0.135-0.045,0.225-0.135,0.314c-1.189,1.302-3.098,2.491-6.667,2.491
				C154.035,33.115,151.409,30.579,150.96,26.269z M160.791,24.339c0-1.818-0.539-3.03-2.155-3.03c-1.526,0-2.132,1.212-2.132,3.03
				c0,1.638,0.606,3.007,2.132,3.007C160.252,27.346,160.791,26.157,160.791,24.339z"/>
			<path d="M169.662,31.97c-0.022-0.292,0.247-0.539,0.516-0.539h1.078c0.247,0,0.426,0.09,0.561,0.471
				c0.247,0.651,0.808,1.773,2.806,1.773c2.11,0,3.232-0.718,3.232-3.21V28.94c-0.718,0.92-1.886,1.616-3.614,1.616
				c-3.367,0-4.714-2.537-4.804-5.365c-0.022-0.449-0.022-0.786,0-1.234c0.09-2.806,1.437-5.387,4.804-5.387
				c1.773,0,2.94,0.763,3.681,1.728v-0.965c0-0.314,0.224-0.539,0.516-0.539h1.032c0.292,0,0.539,0.225,0.539,0.539v10.886
				c0,3.03-1.369,5.185-5.275,5.185C170.672,35.404,169.729,32.891,169.662,31.97z M177.855,25.349c0.022-0.404,0.022-1.145,0-1.549
				c-0.067-1.638-0.943-3.412-3.165-3.412c-2.29,0-3.03,1.684-3.098,3.591c-0.022,0.404-0.022,0.786,0,1.189
				c0.067,1.886,0.808,3.591,3.098,3.591C176.912,28.76,177.788,26.965,177.855,25.349z"/>
			<path d="M183.358,29.95V19.311c0-0.292,0.224-0.517,0.516-0.517h1.01c0.292,0,0.516,0.225,0.516,0.517v0.785
				c0.696-0.92,1.706-1.503,3.187-1.526c1.706-0.022,2.918,0.696,3.591,2.065c0.696-1.235,2.088-2.065,3.749-2.065
				c2.357,0,4.175,1.616,4.175,4.893v6.487c0,0.292-0.224,0.516-0.516,0.516h-1.055c-0.292,0-0.517-0.225-0.517-0.516v-6.285
				c0-2.514-1.212-3.277-2.648-3.277c-1.212,0-2.581,0.763-2.581,3.277v6.285c0,0.292-0.225,0.516-0.517,0.516h-1.055
				c-0.292,0-0.517-0.225-0.517-0.516v-6.285c0-2.514-1.324-3.277-2.648-3.277c-1.212,0-2.581,0.763-2.581,3.255v6.307
				c0,0.292-0.225,0.516-0.517,0.516h-1.077C183.582,30.466,183.358,30.242,183.358,29.95z"/>
			<path d="M202.487,27.301c0-2.042,1.84-3.299,4.534-3.681l3.344-0.472v-0.651c0-1.437-0.786-2.29-2.626-2.29
				c-1.481,0-2.222,0.786-2.559,1.392c-0.09,0.292-0.225,0.382-0.449,0.382h-0.965c-0.27,0-0.494-0.225-0.494-0.494
				c0.022-0.897,1.279-2.917,4.489-2.917c3.636,0,4.714,2.065,4.714,4.107v7.272c0,0.292-0.202,0.516-0.516,0.516h-1.033
				c-0.314,0-0.516-0.225-0.516-0.516v-0.965c-0.561,0.808-1.706,1.706-3.838,1.706C204.35,30.691,202.487,29.209,202.487,27.301z
				 M210.366,25.304v-0.628l-2.604,0.382c-2.132,0.292-3.209,1.032-3.209,2.087c0,1.257,1.257,1.863,2.492,1.863
				C208.884,29.007,210.366,27.818,210.366,25.304z"/>
			<path d="M215.532,16.101v-1.212c0-0.292,0.225-0.539,0.516-0.539h1.414c0.292,0,0.539,0.247,0.539,0.539v1.212
				c0,0.292-0.247,0.516-0.539,0.516h-1.414C215.756,16.617,215.532,16.393,215.532,16.101z M215.711,29.95V19.311
				c0-0.292,0.224-0.517,0.516-0.517h1.077c0.292,0,0.517,0.225,0.517,0.517V29.95c0,0.292-0.225,0.516-0.517,0.516h-1.077
				C215.936,30.466,215.711,30.242,215.711,29.95z"/>
			<path d="M221.167,29.95V15.046c0-0.292,0.224-0.516,0.516-0.516h1.055c0.314,0,0.517,0.225,0.517,0.516V29.95
				c0,0.292-0.202,0.516-0.517,0.516h-1.055C221.391,30.466,221.167,30.242,221.167,29.95z"/>
			<path d="M226.443,29.95v-1.616c0-0.292,0.225-0.516,0.516-0.516h1.616c0.292,0,0.539,0.224,0.539,0.516v1.616
				c0,0.292-0.247,0.516-0.539,0.516h-1.616C226.668,30.466,226.443,30.242,226.443,29.95z"/>
			<path d="M231.54,25.528c-0.022-0.449-0.022-1.324,0-1.796c0.112-3.232,1.998-5.162,5.208-5.162c3.457,0,4.938,2.177,5.005,3.726
				c0.022,0.292-0.225,0.494-0.516,0.494h-1.078c-0.314,0-0.426-0.112-0.561-0.449c-0.539-1.481-1.459-1.998-2.828-1.998
				c-1.795,0-3.008,1.055-3.098,3.501c-0.022,0.494-0.022,1.123,0,1.571c0.09,2.469,1.302,3.501,3.098,3.501
				c1.369,0,2.29-0.516,2.828-1.998c0.135-0.337,0.247-0.471,0.561-0.471h1.078c0.292,0,0.539,0.224,0.516,0.516
				c-0.067,1.504-1.504,3.726-5.005,3.726C233.538,30.691,231.652,28.76,231.54,25.528z"/>
			<path d="M243.933,25.596c-0.022-0.494-0.022-1.437,0-1.931c0.112-2.962,1.908-5.095,5.275-5.095c3.344,0,5.163,2.132,5.275,5.095
				c0.022,0.494,0.022,1.437,0,1.931c-0.112,2.963-1.886,5.095-5.275,5.095C245.796,30.691,244.045,28.559,243.933,25.596z
				 M252.328,25.483c0.022-0.449,0.022-1.257,0-1.706c-0.09-2.267-1.257-3.479-3.12-3.479s-3.053,1.212-3.12,3.479
				c-0.022,0.449-0.022,1.257,0,1.706c0.067,2.267,1.257,3.479,3.12,3.479S252.238,27.75,252.328,25.483z"/>
			<path d="M257.315,29.95V19.311c0-0.292,0.224-0.517,0.516-0.517h1.01c0.292,0,0.516,0.225,0.516,0.517v0.785
				c0.696-0.92,1.706-1.503,3.187-1.526c1.706-0.022,2.918,0.696,3.591,2.065c0.696-1.235,2.088-2.065,3.749-2.065
				c2.357,0,4.175,1.616,4.175,4.893v6.487c0,0.292-0.224,0.516-0.516,0.516h-1.055c-0.292,0-0.517-0.225-0.517-0.516v-6.285
				c0-2.514-1.212-3.277-2.648-3.277c-1.212,0-2.581,0.763-2.581,3.277v6.285c0,0.292-0.225,0.516-0.517,0.516h-1.055
				c-0.292,0-0.517-0.225-0.517-0.516v-6.285c0-2.514-1.324-3.277-2.648-3.277c-1.212,0-2.581,0.763-2.581,3.255v6.307
				c0,0.292-0.225,0.516-0.517,0.516h-1.077C257.539,30.466,257.315,30.242,257.315,29.95z"/>
		</g>
	</g>
</g>
</svg>
