<?xml version="1.0" encoding="utf-8"?>
<!-- Generator: Adobe Illustrator 16.0.0, SVG Export Plug-In . SVG Version: 6.00 Build 0)  -->
<!DOCTYPE svg PUBLIC "-//W3C//DTD SVG 1.1//EN" "http://www.w3.org/Graphics/SVG/1.1/DTD/svg11.dtd">
<svg version="1.1" id="Layer_1" xmlns="http://www.w3.org/2000/svg" xmlns:xlink="http://www.w3.org/1999/xlink" x="0px" y="0px"
	 width="300px" height="150px" viewBox="0 0 300 150" enable-background="new 0 0 300 150" xml:space="preserve">
<g>
	<g>
		<path fill="#0A0A0A" d="M106.489,87.674l-1.408,1.576l-3.838,1.783c0,0-3.601,3.705-4.725,4.516
			c-1.074,0.771-5.382,2.148-5.382,2.148s-2.046,0.055-4.794,0.248c-2.75,0.193-5.54,1.137-8.459,1.555
			c-2.917,0.418-3.125,0.957-7.072,2.502c-3.942,1.543-0.789,1.428-5.984,3.482c-0.442,0.172-1.274,0.578-1.668,0.785
			c-2.604,1.342-6.736,3.285-6.736,3.285l11.201-3.109c0,0,4.267-2.199,6.514-1.729c2.242,0.477,3.217-1.182,5.082-0.891
			c1.863,0.289,2.032,2.498,4.721,1.465c0.854-0.328,0.854-0.328,0.854-0.328l-5.514,5.104l-3.634,2.979
			c-15.773,10.332-14.071,5.045-18.599,8.445c-2.263,1.701-6.987,4.211-10.256,4.865c-3.27,0.652-3.737,0.717-4.454,1.346
			c-0.524,0.461-0.229,0.23-0.065,0.75c0.215,0.689-0.755,1.402-0.782,2.836c-0.015,0.785-1.728,1.266-1.728,1.465
			c0,0.523-0.75,2.574-0.75,2.574s-0.36-0.686,2.477-1.498c0.608-0.174,1.238-0.457,1.801-0.812c0.441-0.279-0.83-0.904,4.673-1.293
			c5.497-0.391-6.991,8.537-1.956,7.012c3.066-0.928,14.549-7.201,16.589-8.068c4.39-1.865,11.987-7.287,11.987-7.287l-11.551,5.033
			l-5.182,0.471c0,0-1.47,1.504-0.733,0.686c0.688-0.764,2.507-2.73,5.583-4.361c3.62-1.918,4.092-4.037,7.238-4.891
			c2.618-0.713,1.551-0.627,6.583-1.818c5.075-1.201,4.217-1.844,4.217-1.844s-0.306-0.988,2.928-4.805
			c3.23-3.814,3.871-2.594,3.871-2.594l3.701-2.369c0,0-0.224-0.617,2.601-2.291c2.829-1.676,5.521-2.709,5.521-2.709
			s0.153-0.521,3.425-1.09c2.694-0.461,4.084-1.496,4.084-1.496s2.35,0.146,3.281-1.158c0.333-0.471-3.699,0.227-5.067-1.301
			c-0.775-0.865-0.93-1.08-0.818-1.814c0.549-3.623,0.954-4.098,0.954-4.098"/>
	</g>
</g>
<g>
	<g>
		<path fill="#0A0A0A" d="M207.34,101.367l4.127,0.531c0,0,1.629,0.008,2.184,2.668c0.557,2.656-0.035,0.893,1.287,4.818
			c1.326,3.934-2.004,1.863,1.277,4.83c3.285,2.969,2.029,2.719,5.354,4.633c1.945,1.123,2.502,1.512,3.945,1.438
			c2.305-0.117,4.049-0.854,2.215-2.889c-2.375-2.639-2.871-0.996-3.244-1.59c-0.775-1.23-3.934-3.037-3.934-3.037l3.984,0.568
			l6.449,3.324l8.039,5.605c0,0,2.873,1.689,5.283,2.584c1.854,0.686,7.023,0.461,7.023,0.461l6.99,2.707
			c0,0-10.074,3.195-13.893,2.145c-3.822-1.055-2.617-2.207-5.441-2.943c-5.205-1.359-4.117-2.158-8.061-2.002
			c-3.941,0.16-2.562-0.201-5.693-1.438c-3.133-1.238-1.922-1.119-5.338-3.457c-3.428-2.338-1.936-4.508-4.395-2.084
			c-2.459,2.422-2.277,0.309-2.568,4.223c-0.295,3.916-0.66,2.535-0.582,5.615s0.078,3.08,0.078,3.08l-1.422-5.379l0.025-5.467
			l0.705-4.029l0.455-4.398c0,0-0.545-2.064-1.021-3.857c-0.473-1.797,0.021-3.258-1.572-3.719c-1.6-0.459,3.021,0.822-0.33-1.238
			C205.916,101.004,207.34,101.367,207.34,101.367z"/>
	</g>
</g>
<g>
	<g>
		<path fill="#0A0A0A" d="M58.378,21.356c0,0,1.027-0.719,2.366-1.235c1.338-0.514,2.469-0.617,6.379-2.366
			c3.91-1.75,3.91-1.75,3.91-1.75s1.852-0.719,4.116-1.337c2.262-0.617,3.908-2.365,6.583-2.573
			c2.676-0.205,1.749-0.102,4.631,0.515c2.88,0.617,3.599,0.926,6.172,1.235c2.573,0.308,4.835,0.72,5.762,0.926
			c0.926,0.207,0.514-0.001,1.132,1.132c0.617,1.131,0.307,1.852,2.365,2.983c2.058,1.133,1.853,0.926,3.911,1.75
			c2.058,0.824,2.674,0.824,3.498,1.441c0.823,0.617-0.72-1.03,2.058,2.161c2.779,3.188,2.16,3.188,3.601,4.013
			c1.441,0.823,2.058-0.412,3.19,0.72c1.132,1.132,2.406,2.058,2.406,2.058l-0.555,3.292c0,0-1.233,0.618-3.6-1.543
			c-2.367-2.161-2.88-2.674-4.938-3.807c-2.058-1.132-3.909-2.058-6.482-2.367c-2.573-0.309-2.676-0.926-3.602,0.412
			c-0.925,1.337-0.616,0.104-1.646,2.366c-1.03,2.265-1.647,1.748-1.441,3.808c0.207,2.057-0.206,1.543,0.926,3.396
			c1.132,1.851,1.852,2.469,3.086,3.807c1.235,1.337,1.028,1.131,2.469,2.367c1.441,1.234,1.853,2.057,3.396,3.395
			c1.543,1.337,3.395,3.044,3.395,3.044s-5.658-4.485-6.584-5.102c-0.926-0.617-2.572-2.572-4.63-3.704
			c-2.058-1.132-3.293-1.75-4.117-3.396c-0.821-1.646-1.338-1.646-3.086-2.881c-1.749-1.234-2.016-2.3-3.631-3.516
			c-1.615-1.217-0.997-2.348-2.129-2.554c-1.133-0.206,0.207-0.72-1.234-1.029c-1.441-0.308,0.925,0.205,2.366-0.206
			s1.03-0.001,1.956-1.646c0.925-1.647-0.104-1.44,0.822-2.882c0.926-1.44,2.161-0.822,0.721-2.161
			c-1.441-1.337,0.453-0.514-2.501-2.469c-2.952-1.955-1.821-0.926-4.805-1.337c-2.983-0.412-2.88-0.412-5.658,0.207
			c-2.778,0.617-2.674,0.821-3.704,0.925c-1.031,0.103-1.339,0-2.574,0.412c-1.234,0.411-0.822,0.719-2.366,1.132
			c-1.542,0.411-2.675,0.411-2.675,0.411h-1.75l-1.233,0.307l-2.264,0.515L58.378,21.356z"/>
	</g>
</g>
<g>
	<g>
		<path fill="#0A0A0A" d="M143.6,83.432c-1.517,1.146-1.714,0.842-2.263,1.221c-1.926,1.336-0.639,0.844-3.261,0.908
			c-2.62,0.062-2.845,0.029-4.362-0.414c-1.529-0.447-3.479,0.875-3.479,0.875l-1.847-0.982l-1.606,1.584
			c0,0-0.457,0.91-2.874,1.117c-2.417,0.209-1.08-0.383-2.417,0.209c-1.334,0.59-3.479,2.846-5.194,2.93
			c-1.717,0.086-3.671,0.248-4.815,0.307c-1.143,0.057-17.327,2.053-18.851,2.387c-1.528,0.334-7.898,1.979-9.424,2.316
			c-1.523,0.34-7.674,2.795-7.674,2.795s-2.158,0.021-4.957,0.508c-2.793,0.486-8.451,1.896-8.451,1.896l-5.607,0.299l-5.127,0.146
			l-2.494-0.035l-2.384,0.777l-5.333-0.229l2.919,0.43c0,0,1.859,0.498,3.222,0.471c1.37-0.021,1.32-0.477,2.861-0.139
			c1.539,0.338,8.591,0.248,6.986,0.352c-1.603,0.104,11.261-0.145,9.403,0.146c-1.862,0.289,11.067-1.176,9.208-0.891
			c-1.854,0.287,4.957-1.293,5.847-1.16c0.889,0.129,2.079-0.254,2.146-0.691c0.065-0.439,3.796-1.906,2.415-0.992
			c-1.381,0.922,4.926-1.852,3.53-1.607c-1.399,0.242,6.29-1.098,4.35-1.047c-1.933,0.055,12.104-1.248,10.17-1.193
			c-1.939,0.051,9.275-1.332,7.317-1.168c-1.947,0.16,4.673-0.102,4.004-0.195c-0.667-0.104,6.641,1.193,4.449,0.65
			c-2.191-0.547,3.197,0.439,1.494,2.184c-0.919,0.943-1.107,0.326-2.581,0.336c-1.476,0.006-4.558,1.137-6.542,0.73
			c-1.984-0.404-5.675,0.852-5.675,0.852l9.64-0.047c0,0,4.881,0.043,5.956,0.426c1.082,0.381,1.082-0.404,1.082-0.404
			s2.859-0.137,2.493,0.031c-0.365,0.172,1.365-0.023,1.365-0.023s-0.192,0.543,0.154-1.037c0.342-1.58-0.249-0.66,0.947-1.828
			c1.195-1.17-0.472-1.379,0.321-2.189c0.853-0.869,1.909-3.064,3.272-3.096c2.816-0.057,5.017-0.688,5.017-0.688
			s1.492-0.322,1.885-0.443c0.985-0.311,1.21-1.6,2.659-2.055"/>
	</g>
</g>
<g>
	<g>
		<path fill="#0A0A0A" d="M51.743,67.662c0,0,0.319-1.256,0.795-2.891c0.741-2.539,1.868-5.993,2.792-7.08
			c1.518-1.79,2.83-2.597,7.488-4.182c4.659-1.581,11.941-4.784,14.006-6.013c2.068-1.229,11.396-2.812,15.154-2.057
			s19.282,7.417,19.282,7.417l2.336,1.688l7.345,5.303c0,0-10.766-6.013-16.232-7.381c-5.465-1.372-6.491-3.377-11.361-3.349
			c-4.869,0.031-11.845,0.765-16.063,2.603c-3.978,1.733-4.112,5.665-9.458,8.893c-3.566,2.149-4.611,2.526-6.667,5.333
			c-2.055,2.81-2.781,9.333-2.781,9.333V63.946c0,0-0.554-4.647-2.678-3.545C53.573,61.5,51.743,67.662,51.743,67.662z"/>
	</g>
</g>
<g>
	<g>
		<path fill="#0A0A0A" d="M120.458,20.125c0,0,5.018,0,7.108,1.464c2.091,1.463,9.826,5.436,11.708,7.735
			c1.882,2.3,5.436,8.572,5.436,10.663c0,2.09-3.764,0.626-4.6,0c-0.836-0.627-1.672-3.193-3.135-5.778
			c-1.464-2.584-3.763-4.049-4.391-5.093c-0.627-1.045-2.718-0.904-5.018-2.857c-2.299-1.952-4.182-2.37-4.391-2.998
			c-0.208-0.627-0.627-1.672-0.627-1.672L120.458,20.125z"/>
	</g>
</g>
<g>
	<g>
		<path fill="#0A0A0A" d="M137.288,52.59l-1.88,1.464c0,0-1.882-0.419-2.092,1.043c-0.208,1.465-1.254,1.674,0,3.137
			c1.254,1.464,2.32,1.464,1.683,2.509c-0.637,1.046-0.428,2.508-0.846,3.346c-0.418,0.837-1.026,1.672,0.846,2.926
			c1.872,1.254,2.29,3.137,2.29,3.137s-2.07,0.418-2.29,1.044c-0.219,0.627-0.199,1.464,0,3.136s1.892,2.928,0,2.717
			c-1.891-0.207-3.982,1.049-3.982,1.049v1.043c0,0-3.554,0.418-4.6,1.256c-1.045,0.838-3.554,2.51-3.972,3.137
			c-0.418,0.625-2.3,0.416-5.018,0c-2.718-0.418-4.391-0.256-6.899,0.395c-2.509,0.65-6.899,1.695-6.899,1.695
			s11.917-3.555,12.962-4.182s3.136-0.627,3.868-0.627s0.313-0.627,2.613-1.674c2.3-1.043,2.509-2.299,4.391-1.881
			c1.881,0.418,2.718,0,3.554-1.672c0.836-1.673-1.672-1.883-1.672-1.883s1.672-1.881,1.672-2.299c0-0.419,0-2.927,0-2.927
			s-2.509-0.836-1.255-2.091c1.255-1.253,1.255-2.718,1.255-2.718v-2.927v-2.3v-3.136l1.882-2.718h3.554L137.288,52.59
			L137.288,52.59z"/>
	</g>
</g>
<g>
	<g>
		<path fill="#0A0A0A" d="M143.507,134.312c1.291-1.027,5.72-5.627,6.975-7.299c1.254-1.672,2.397-3.781,3.442-6.5
			s1.881-4.391,1.672-5.646c-0.207-1.254-0.416-4.598-0.834-5.227c-0.42-0.627-2.353-2.928-2.353-2.928s-0.47-1.881,0-2.926
			s0-3.555,0-3.555l-3.086-1.674l-2.926-1.461l-0.627-2.51c0,0,1.881,1.252,3.764,0c1.881-1.256,4.181-3.557,4.181-3.557
			s-0.836,0.838,0,3.346c0.836,2.51-1.882,1.883,0,4.602c1.881,2.717,2.09,2.926,3.346,6.27c1.254,3.346,3.555,5.855,3.137,7.527
			c-0.42,1.672,0.1,1.672,0.049,3.137c-0.049,1.463,1.311,2.09,0.004,2.928c-1.309,0.834-1.936,1.883-2.562,3.344
			c-0.627,1.465-1.045,3.346-2.09,3.975c-1.047,0.627-0.633,0.836-2.303,1.461c-1.67,0.629-2.925,2.301-3.971,3.555
			c-1.045,1.256-0.418,0.619-1.045,1.256c-0.627,0.639-5.231,1.867-6.485,3.121"/>
	</g>
</g>
<g>
	<g>
		<path fill="#0A0A0A" d="M152.409,86.436l1.724-2.928l-0.861-1.463c0,0-1.021,0.418-2.482,0c-1.465-0.42-2.719-0.42-1.465-1.881
			c1.255-1.465,0.945-2.303,3.086-3.555c2.141-1.255,2.77-2.092,4.023-3.346c1.254-1.254,1.254-3.973,3.344-3.345
			c2.092,0.628-0.426,1.046,1.041,3.345c1.469,2.3,0.424,3.137,1.678,3.971c1.254,0.838,2.092,1.883,2.092,1.883l-2.719,1.047
			l-2.508,1.672l-0.209,1.254l2.717-0.418c0,0,0.418-1.047,2.719-1.674c2.299-0.627,5.227,0.42,5.227,0.42s1.881-1.465,2.51-1.674
			c0.625-0.209,1.463,0.209,3.553,0.627c2.092,0.42,1.883-0.627,3.975-1.254c2.09-0.627,6.061,0.836,6.061,0.836
			s3.346-1.137,3.975-1.822c0.627-0.686,3.137-2.148,3.973-2.986c0.836-0.836,3.553-0.417,4.6-0.417c1.045,0,0.627-1.045,3.555-2.3
			c2.926-1.255,4.6-2.718,6.27-2.509c1.674,0.208,3.975-1.672,5.438-2.299s4.18-1.046,5.854-1.046c1.672,0,2.092-1.044,3.346-1.672
			c1.254-0.627,3.137-1.672,3.137-1.672l-5.436,1.045c0,0-1.047-1.463-5.018,0c-3.975,1.464-5.646,2.299-7.736,2.09
			c-2.09-0.208-6.48-0.417-8.99-0.417c-2.508,0-3.346,0.417-5.645,1.254c-2.301,0.837-2.51,0.208-4.184,1.672
			c-1.672,1.464-1.254,0.837-3.553,1.045s-1.465-0.837-2.719-2.09c-1.254-1.255-1.045-1.672-2.299-2.509
			c-1.254-0.837-2.719-1.045-2.719-1.045s-0.418,1.882-0.418,3.554s-0.627,2.509,1.254,3.971c1.883,1.464,0.838,3.033,0.838,3.033
			h-2.719l-2.51,1.15c0,0-2.928-2.091-3.764-1.15s-1.881-0.314-2.928-1.568c-1.045-1.254-3.135-0.418-1.254-3.345
			c1.881-2.927,1.463-3.555,2.928-5.227c1.463-1.671,0.836-5.226,2.508-6.48c1.674-1.255,4.391-1.255,4.391-1.255
			s-0.418-1.462-0.209-3.554c0.209-2.09,1.254-4.809,2.092-7.317c0.836-2.509,1.465-2.509,3.346-4.182
			c1.883-1.672,5.758-5.854,6.119-6.272c0.359-0.418,0.057-2.09,0-4.39c-0.057-2.3-0.361-2.509,0-3.554
			c0.359-1.045,1.615-2.509,2.033-3.554c0.42-1.045,3.346-5.39,3.346-5.39s-6.062,5.808-7.107,6.854
			c-1.045,1.045-3.137,3.763-4.182,5.018c-1.045,1.254-4.809,6.215-6.271,6.139c-1.463-0.076-5.645,1.806-6.48,2.851
			s-3.137,3.907-3.137,3.907s-0.209,7.383,0.209,5.502c0.418-1.882-3.346,10.662-1.674,7.526c1.674-3.136-5.016,6.063-6.48,5.018
			c-1.463-1.045-1.463-1.672-1.463-3.555c0-1.881,0-2.926,0-2.926s-0.627-0.791-1.881-2.486c-1.256-1.697-1.934-4.205-1.934-4.205
			s-0.887-2.434,0-4.875c0.887-2.443,1.305-4.324,2.143-5.579c0.836-1.254,2.299-2.718,2.926-3.554
			c0.627-0.835,1.465-4.182,1.465-4.182l1.877-3.762c0,0-2.924,3.553-4.178,5.226s-2.299,2.3-3.346,3.972
			c-1.045,1.673-2.508,6.481-2.508,6.481s-0.82,5.018-1.979,5.644c-1.158,0.628-0.514,3.137,0,3.974s-0.322,2.927,0.305,3.554
			c0.628,0.626,1.883,1.464,1.674,2.718c-0.21,1.255-1.465,3.972-1.674,6.062c-0.208,2.092,0.809,5.227-0.954,6.691
			c-1.763,1.463-3.646,5.018-5.108,5.436c-1.462,0.418-1.882,2.719,0,3.973c1.883,1.254,1.255,2.09,2.3,2.717
			c1.046,0.629,3.347,1.674,3.347,1.674L152.409,86.436z"/>
	</g>
</g>
<g>
	<g>
		<path fill="#0A0A0A" d="M258.084,136.074c-1.463-1.465,1.297,0.008-2.258-3.129c-3.555-3.135-10.91-5.812-13-7.277
			c-2.09-1.467-8.828-7.453-10.711-8.291c-1.881-0.836-4.6-2.299-6.062-3.344c-1.465-1.045-4.811-5.438-7.105-6.689
			c-2.303-1.256-4.184-1.672-6.482-1.256c-2.301,0.418-6.645,0.836-7.504,1.256c-0.859,0.418-2.113,0.627-3.578,0.418
			c-1.463-0.209-6.688-1.047-6.688-1.047l-4.393-2.299l5.02,0.627c0,0,2.508,0,3.553,0.629c1.045,0.625,1.881-1.256,3.346-1.465
			c1.463-0.211,4.391-0.838,4.391-0.838l2.51-4.389l1.672-5.646c0,0,2.508-1.672,4.811-2.301c2.297-0.627,3.762-1.463,5.018-2.508
			c1.254-1.045,1.463-1.045,1.045-2.092c-0.42-1.045-2.51-2.717-3.973-3.137c-1.463-0.418-7.943-2.09-8.99-1.672
			c-1.045,0.42-5.436-1.463-6.898-0.836s-6.898,0.418-6.898,0.418l1.463-3.973l8.596,1.674c0,0,12.521,1.881,14.193,3.137
			c1.674,1.252,7.736,2.926,8.363,4.389c0.627,1.465-1.465,2.51-3.139,3.557c-1.672,1.043-6.896,3.553-6.896,5.643
			c0,2.094,2.299,1.674,4.391,3.348c2.088,1.672,8.152,5.227,11.08,7.941c2.926,2.721,8.781,6.691,11.5,8.783
			c2.717,2.09,4.809,4.18,6.271,5.854c1.465,1.674,13.197,12.424,14.66,14.516"/>
	</g>
</g>
<g>
	<g>
		<path fill="#0A0A0A" d="M188.002,106.506v-1.256c0,0-3.137-1.254-5.018-1.463c-1.883-0.209-3.555-0.625-4.184-1.045
			c-0.627-0.418-3.971-0.207-5.016-1.045c-1.047-0.838-3.764-2.299-4.602-3.137c-0.836-0.834-2.09-3.555-2.09-3.555h-1.465
			c0,0-0.209,1.883,0,4.602c0.209,2.717,1.465,8.152,2.092,9.824c0.627,1.674,1.463,2.928,2.092,4.393
			c0.627,1.463,1.881,6.061,2.926,6.898c1.047,0.836,0.953,1.463,4.031,2.719c3.078,1.252,10.395,2.342,12.275,2.215
			c1.883-0.125,1.254-6.814,1.254-6.814s-3.135,1.043-5.227,0.416c-2.09-0.625-4.809-1.463-6.061-2.926
			c-1.256-1.465-3.139-2.301-3.766-3.764s-3.764-3.764-3.555-5.438c0.209-1.672-1.045-0.418,0.209-1.672
			c1.256-1.254,1.465-2.717,2.928-1.465c1.463,1.256,0.635,1.256,3.139,1.676c2.508,0.416,3.553,0.209,4.807,0.834
			c1.254,0.627,1.465-0.625,2.51,0c1.045,0.627,1.674,1.674,1.674,1.674L188.002,106.506z"/>
	</g>
</g>
</svg>
